# xmcd CD database file
#
# Track frame offsets:
#	150
#	18285
#	34190
#
# Disc length: 676 seconds
#
# Revision: 1
# Processed by: cddbd v1.5.2PL0 Copyright (c) Steve Scherf et al.
# Submitted via: CDex 1.51
#
DISCID=1902a203
DTITLE=Ingenting - Hiv positiv [CD-single)
DYEAR=1993
DGENRE=Rock
TTITLE0=Hiv positiv
TTITLE1=Dommedag
TTITLE2=Ikkje kult å ver daue (akustisk)
EXTD=YEAR: 1993
EXTT0=
EXTT1=
EXTT2=
PLAYORDER=
